<svg width="460" height="382" viewBox="0 0 460 382" fill="none" xmlns="http://www.w3.org/2000/svg">
    <path d="M57.5576 181.747C63.113 179.336 69.2533 178 75.7039 178C93.9838 178 109.737 188.733 116.913 204.198H154V242.977H116.346C108.932 257.808 93.5146 268 75.7039 268C58.6116 268 43.7285 258.614 36 244.754H79.6675L93.677 221.705L79.6675 197.148H38.5846C43.3387 190.434 49.8976 185.072 57.5576 181.747Z" fill="#0F1146" stroke="black" stroke-width="3" stroke-miterlimit="10"/>
    <path d="M395.044 244.754H413C405.331 258.614 390.563 268 373.603 268C355.93 268 340.632 257.808 333.275 242.977H299V204.198H332.713C339.833 188.733 355.464 178 373.603 178C388.833 178 402.297 185.566 410.435 197.148H369.667L355.765 221.705L369.667 244.754H395.044Z" fill="#0F1146" stroke="black" stroke-width="3" stroke-miterlimit="10"/>
    <path d="M164 113H154V113H164Z" stroke="black" stroke-width="3" stroke-miterlimit="10"/>
    <path d="M165 113V113H164H165Z" stroke="black" stroke-width="3" stroke-miterlimit="10"/>
    <path d="M154 122H165V122H154V122Z" stroke="black" stroke-width="3" stroke-miterlimit="10"/>
    <path d="M165 129H154V130H165V129Z" stroke="black" stroke-width="3" stroke-miterlimit="10"/>
    <path d="M165 137H154V276H165V137Z" stroke="black" stroke-width="3" stroke-miterlimit="10"/>
    <path d="M270.904 336.455L273.481 340.434C273.626 340.659 273.807 340.849 274.01 341H219V328.088H275.268C275.779 328.088 276.279 328.056 276.772 328C276.844 328.267 276.917 328.558 277 328.875L276.779 329.12L271.615 333.451C270.564 334.094 270.241 335.436 270.904 336.455Z" stroke="black" stroke-width="3" stroke-miterlimit="10"/>
    <path d="M299 95.8767V305C297.599 304.809 296.165 304.769 294.713 304.888L291.383 299.111C290.936 297.955 289.643 297.382 288.487 297.825L287.418 298.236V98.1939C287.418 91.4837 281.965 86.042 275.24 86.042H192C193.82 82.6328 195.142 78.9209 195.868 75H278.079C289.636 75 299 84.3482 299 95.8767Z" stroke="black" stroke-width="3" stroke-miterlimit="10"/>
    <path d="M165 112.544V112.555L173.913 112.613M274.867 86H191.932C188.615 92.2409 183.631 97.4626 177.576 101.067L174.906 111.514L173.92 112.613C174.751 112.836 175.366 113.596 175.366 114.503V119.675C175.366 120.759 174.488 121.637 173.409 121.637H165V121.861H171.081C172.164 121.861 173.038 122.739 173.038 123.823V127.133C173.038 128.217 172.164 129.095 171.081 129.095H165V129.376H168.742V134.371C168.742 135.556 167.781 136.517 166.598 136.517H165V275.776H219.002V328H274.867C275.374 328 275.871 327.968 276.36 327.91C275.972 326.322 275.813 325.436 275.972 323.607L275.802 323.495L270.017 320.365C268.847 319.977 268.214 318.713 268.602 317.539L270.121 312.969C270.513 311.798 271.776 311.161 272.949 311.55L279.631 312.691L280.091 312.63C281.336 310.779 281.203 310.552 283.024 309.198L283.557 308.716L282.297 302.259C281.851 301.103 282.423 299.813 283.575 299.367L287 298.042V98.1432C287 91.4378 281.567 86 274.867 86ZM205.721 198.908C205.721 200.856 205.087 202.653 204.019 204.112C202.418 206.294 199.834 207.713 196.923 207.713H189.162C186.247 207.713 183.664 206.294 182.063 204.112C180.994 202.653 180.364 200.856 180.364 198.908V191.14C180.364 186.275 184.301 182.335 189.162 182.335H196.923C201.781 182.335 205.721 186.275 205.721 191.14V198.908ZM240.263 198.908C240.263 200.856 239.63 202.653 238.561 204.112C236.96 206.294 234.377 207.713 231.466 207.713H223.704C220.79 207.713 218.206 206.294 216.605 204.112C215.536 202.653 214.907 200.856 214.907 198.908V191.14C214.907 186.275 218.843 182.335 223.704 182.335H231.466C236.323 182.335 240.263 186.275 240.263 191.14V198.908ZM273.726 198.908C273.726 200.856 273.093 202.653 272.024 204.112C270.423 206.294 267.84 207.713 264.929 207.713H257.167C254.253 207.713 251.669 206.294 250.068 204.112C249 202.653 248.37 200.856 248.37 198.908V191.14C248.37 186.275 252.306 182.335 257.167 182.335H264.929C269.786 182.335 273.726 186.275 273.726 191.14V198.908Z" stroke="black" stroke-width="3" stroke-miterlimit="10"/>
    <path d="M284 340.221C282.154 340.729 280.192 341 278.161 341H277L282.432 339C282.932 339.435 283.454 339.842 284 340.221Z" stroke="black" stroke-width="3" stroke-miterlimit="10"/>
    <path d="M225.5 103C227.985 103 230 100.985 230 98.5C230 96.0147 227.985 94 225.5 94C223.015 94 221 96.0147 221 98.5C221 100.985 223.015 103 225.5 103Z" stroke="black" stroke-width="3" stroke-miterlimit="10"/>
    <path d="M175.52 114.766V119.933C175.52 121.016 174.642 121.894 173.563 121.894H142.361C141.278 121.894 140.401 121.016 140.401 119.933V114.766C140.401 113.683 141.278 112.808 142.361 112.808H163.732L165.16 112.819L174.067 112.876H174.074C174.905 113.1 175.52 113.859 175.52 114.766Z" stroke="black" stroke-width="3" stroke-miterlimit="10"/>
    <path d="M174.067 112.876L165.16 112.819L163.732 112.808" stroke="black" stroke-width="3" stroke-miterlimit="10"/>
    <path d="M173.193 124.079V127.386C173.193 128.469 172.319 129.347 171.237 129.347H143.936C142.853 129.347 141.976 128.469 141.976 127.386V124.079C141.976 122.996 142.853 122.118 143.936 122.118H171.237C172.319 122.118 173.193 122.996 173.193 124.079Z" stroke="black" stroke-width="3" stroke-miterlimit="10"/>
    <path d="M163.732 112.808L165.16 112.819L174.067 112.876" stroke="black" stroke-width="3" stroke-miterlimit="10"/>
    <path d="M174.067 112.877H174.074M177.728 101.34C183.78 97.7375 188.76 92.5196 192.076 86.2833C193.888 82.8791 195.204 79.1726 195.927 75.2574C196.351 72.9723 196.571 70.6189 196.571 68.2115C196.571 61.8313 195.021 55.8109 192.277 50.5139C185.873 38.1385 172.959 29.6855 158.075 29.6855C136.812 29.6855 119.576 46.9333 119.576 68.2115C119.576 73.0983 120.364 77.7404 121.867 82.0047C124.654 89.9322 129.904 96.5463 137.136 100.94L137.247 101.167L140.401 112.657L153.623 112.743L163.732 112.808M186.47 70.4426C186.441 71.7524 185.362 72.7888 184.053 72.76L177.843 73.5913L177.828 74.0231L177.472 75.0343C177.447 75.1099 177.422 75.1854 177.393 75.2574C176.757 77.0495 176.329 77.3877 175.146 79.0143L174.966 79.5217L174.635 79.7736L177.508 85.103C177.785 85.4557 177.951 85.8659 178.001 86.2833C178.098 87.075 177.792 87.8991 177.12 88.4281L173.118 91.5984C172.096 92.408 170.608 92.2317 169.795 91.2097L168.525 90.0258L165.206 86.9311L165.134 86.9886C163.991 87.4061 162.79 87.7227 161.549 87.9387C160.51 88.1222 159.478 88.2193 158.46 88.2445L156.116 93.9986C155.864 95.1717 154.785 95.949 153.627 95.859C153.519 95.8554 153.411 95.8374 153.303 95.8158L148.319 94.7399C147.043 94.4664 146.23 93.2069 146.503 91.9258L146.913 85.1282C145.137 84.0486 143.522 82.6956 142.134 81.123L135.647 83.1418C134.485 83.7428 133.054 83.2893 132.457 82.1234L130.116 77.5893C129.904 77.1826 129.825 76.74 129.861 76.3118C129.922 75.5273 130.379 74.7896 131.13 74.401L136.938 70.1655L137.193 69.9208C136.805 67.5385 136.614 66.6245 137.003 64.3754L136.834 64.2423L131.001 60.4278C129.803 59.9133 129.242 58.5242 129.757 57.3187L131.767 52.6262C132.281 51.4279 133.669 50.8665 134.874 51.3811L141.832 53.1768L142.321 53.1552C143.803 51.3092 143.68 51.0573 145.723 49.787L146.327 49.3264L145.568 42.3992C145.198 41.1397 145.917 39.8262 147.172 39.4592L152.066 38.0234C153.318 37.6563 154.63 38.376 155.001 39.6355L157.993 46.0229C160.931 46.0265 163.764 46.649 166.353 47.7826L171.435 43.6083C172.29 42.6151 173.783 42.5071 174.775 43.3564L178.645 46.6778C179.637 47.5343 179.749 49.0241 178.9 50.0173L176.117 54.4939L175.516 55.4619C176.757 57.3295 177.713 59.4203 178.314 61.6873L178.31 61.7485L184.254 62.9216C185.56 62.9504 186.599 64.0336 186.57 65.3398L186.47 70.4426Z" stroke="black" stroke-width="3" stroke-miterlimit="10"/>
    <path d="M184.254 62.9216L178.31 61.7485L178.314 61.6873C177.713 59.4202 176.757 57.3295 175.516 55.4619L176.117 54.4938L178.9 50.0173C179.749 49.0241 179.637 47.5343 178.645 46.6778L174.775 43.3564C173.783 42.5071 172.29 42.6151 171.435 43.6083L166.353 47.7826C163.764 46.649 160.931 46.0265 157.993 46.0229L155.001 39.6355C154.63 38.376 153.318 37.6563 152.066 38.0233L147.172 39.4592C145.917 39.8262 145.198 41.1397 145.568 42.3992L146.327 49.3264L145.723 49.787C143.68 51.0572 143.803 51.3091 142.321 53.1552L141.832 53.1768L134.874 51.3811C133.669 50.8665 132.281 51.4279 131.767 52.6262L129.757 57.3187C129.242 58.5242 129.803 59.9132 131.001 60.4278L136.834 64.2423L137.003 64.3754C136.614 66.6245 136.805 67.5385 137.193 69.9208L136.938 70.1655L131.13 74.401C130.379 74.7896 129.922 75.5273 129.861 76.3118C129.825 76.74 129.904 77.1826 130.116 77.5893L132.457 82.1234C133.054 83.2893 134.485 83.7428 135.647 83.1418L142.134 81.123C143.522 82.6956 145.137 84.0486 146.913 85.1282L146.503 91.9258C146.23 93.2069 147.043 94.4664 148.319 94.7399L153.303 95.8158C153.411 95.8374 153.519 95.8554 153.627 95.859C154.785 95.949 155.864 95.1717 156.115 93.9986L158.46 88.2445C159.478 88.2193 160.51 88.1222 161.549 87.9386C162.79 87.7227 163.991 87.4061 165.134 86.9886L165.206 86.9311L168.525 90.0258L169.795 91.2097C170.607 92.2317 172.096 92.408 173.118 91.5984L177.12 88.428C177.792 87.8991 178.098 87.075 178.001 86.2833C177.951 85.8659 177.785 85.4557 177.508 85.103L174.635 79.7736L174.966 79.5217L175.146 79.0143C176.329 77.3877 176.757 77.0495 177.393 75.2574C177.422 75.1854 177.447 75.1099 177.472 75.0343L177.828 74.0231L177.843 73.5913L184.053 72.76C185.362 72.7888 186.441 71.7524 186.47 70.4426L186.57 65.3398C186.599 64.0336 185.56 62.9504 184.254 62.9216ZM169.867 75.7648C167.468 79.2914 163.556 81.7024 159.064 82.055C158.687 82.0874 158.302 82.1018 157.917 82.1018C157.777 82.1018 157.637 82.0982 157.496 82.0946C157.356 82.091 157.216 82.0838 157.079 82.0766C157.054 82.0766 157.029 82.073 157.004 82.073C156.82 82.0622 156.644 82.0478 156.464 82.0299C156.227 82.0047 155.99 81.9759 155.752 81.9399C155.637 81.9219 155.519 81.9039 155.403 81.8823C155.27 81.8607 155.137 81.8355 155.004 81.8067C154.886 81.7851 154.771 81.76 154.652 81.7312C154.174 81.6196 153.703 81.4865 153.242 81.3281C153.142 81.2957 153.044 81.2598 152.947 81.2238C152.861 81.195 152.775 81.1626 152.688 81.1266C152.588 81.087 152.484 81.0474 152.383 81.0043C152.275 80.9611 152.171 80.9143 152.066 80.8675C151.854 80.774 151.649 80.6768 151.441 80.5724C151.34 80.5221 151.236 80.4681 151.135 80.4141C151.049 80.3673 150.959 80.3205 150.872 80.2702C150.66 80.1514 150.452 80.0291 150.247 79.8995C150.164 79.8491 150.081 79.7952 149.999 79.7412C149.945 79.7052 149.891 79.6692 149.837 79.6332C149.74 79.5684 149.646 79.5037 149.553 79.4353C149.459 79.3705 149.366 79.3022 149.272 79.2302C149.197 79.1762 149.125 79.1222 149.053 79.0647C148.941 78.9783 148.834 78.8919 148.726 78.802C148.647 78.7372 148.567 78.6724 148.492 78.604C148.309 78.4457 148.125 78.2802 147.949 78.111C147.866 78.0319 147.783 77.9527 147.701 77.8699C147.618 77.7908 147.539 77.7044 147.46 77.6216C147.377 77.5389 147.298 77.4525 147.223 77.3661C147.143 77.2798 147.064 77.1934 146.992 77.107C146.874 76.9703 146.759 76.83 146.644 76.6896C146.539 76.5601 146.439 76.4305 146.338 76.2974C146.331 76.2866 146.32 76.2722 146.313 76.2614C146.208 76.1246 146.111 75.9843 146.014 75.844C145.985 75.8044 145.96 75.7684 145.935 75.7288C145.852 75.6101 145.773 75.4877 145.698 75.3654C145.637 75.2682 145.576 75.171 145.518 75.0739C145.457 74.9731 145.399 74.876 145.345 74.7752C145.119 74.3794 144.91 73.9691 144.723 73.5481C144.655 73.397 144.59 73.2422 144.526 73.0875C144.464 72.9327 144.403 72.778 144.346 72.6197C144.342 72.6089 144.339 72.5981 144.335 72.5873C144.295 72.4757 144.256 72.3678 144.22 72.2562C144.144 72.0403 144.08 71.8244 144.015 71.6049C143.918 71.263 143.831 70.914 143.763 70.5613C143.738 70.4462 143.713 70.3238 143.695 70.2051C143.677 70.1151 143.662 70.0215 143.648 69.9316C143.619 69.7588 143.594 69.5825 143.573 69.4062C143.562 69.3126 143.551 69.2191 143.544 69.1255C143.519 68.8988 143.501 68.6649 143.49 68.4346C143.483 68.3158 143.479 68.1935 143.475 68.0711C143.472 67.9308 143.468 67.7868 143.468 67.6465C143.468 59.6613 149.934 53.1912 157.917 53.1912C158.104 53.1912 158.288 53.1948 158.474 53.202C158.658 53.2092 158.845 53.22 159.028 53.2344C159.151 53.2416 159.273 53.2524 159.395 53.2667C159.881 53.3135 160.359 53.3891 160.826 53.4863C160.945 53.5078 161.06 53.533 161.179 53.5618C161.258 53.5798 161.341 53.5978 161.42 53.6194C161.502 53.641 161.589 53.6626 161.671 53.6842C161.682 53.6878 161.689 53.6878 161.7 53.6914C161.83 53.7274 161.959 53.7633 162.085 53.8029C162.16 53.8245 162.232 53.8461 162.304 53.8677C162.387 53.8965 162.466 53.9217 162.549 53.9505C162.66 53.9865 162.772 54.026 162.883 54.0692C163.034 54.1232 163.189 54.1808 163.34 54.2455C163.358 54.2491 163.372 54.2563 163.39 54.2635C163.401 54.2671 163.415 54.2743 163.426 54.2779C163.574 54.3391 163.717 54.4039 163.861 54.4687L163.98 54.5226C163.994 54.5298 164.009 54.5334 164.02 54.5442C164.135 54.5946 164.246 54.6486 164.358 54.7062C164.444 54.7457 164.527 54.7889 164.609 54.8357C164.71 54.8861 164.811 54.9401 164.908 54.994C165.008 55.0516 165.106 55.1056 165.203 55.1632C165.386 55.2711 165.569 55.3827 165.746 55.4978C165.925 55.613 166.102 55.7317 166.274 55.8577C166.325 55.8937 166.375 55.9297 166.422 55.9656C166.519 56.034 166.616 56.106 166.709 56.1816C166.763 56.2175 166.817 56.2607 166.868 56.3039C166.954 56.3687 167.037 56.4371 167.119 56.509C167.206 56.5774 167.285 56.6458 167.367 56.7141C167.375 56.7213 167.378 56.7285 167.385 56.7321C167.551 56.8761 167.716 57.0272 167.878 57.182L167.882 57.1856C167.968 57.2683 168.054 57.3511 168.137 57.4339C168.299 57.5958 168.453 57.7577 168.604 57.9269C169.306 58.6969 169.924 59.5426 170.442 60.4494C170.5 60.5466 170.554 60.6401 170.604 60.7373C170.719 60.946 170.83 61.1619 170.935 61.3778C170.999 61.5146 171.064 61.6549 171.125 61.7953C171.183 61.9176 171.233 62.0436 171.284 62.1695C171.33 62.2811 171.377 62.3926 171.417 62.5042C171.467 62.6337 171.514 62.7633 171.56 62.8964C171.593 62.99 171.625 63.0836 171.654 63.1771C171.697 63.3067 171.737 63.4398 171.776 63.573C171.798 63.6449 171.819 63.7169 171.837 63.7925C171.841 63.7997 171.845 63.8033 171.845 63.8105C171.866 63.886 171.884 63.958 171.902 64.0336C171.963 64.2639 172.017 64.4978 172.064 64.7353C172.067 64.7569 172.075 64.7821 172.078 64.8037C172.1 64.8972 172.118 64.9944 172.132 65.0879C172.15 65.1851 172.168 65.2823 172.183 65.3794C172.222 65.6385 172.258 65.9012 172.283 66.1675C172.301 66.3438 172.316 66.5238 172.326 66.7037C172.341 66.8728 172.348 67.0419 172.352 67.2111C172.355 67.355 172.359 67.5026 172.359 67.6465C172.359 70.6585 171.438 73.4509 169.867 75.7648Z" fill="#0F1146" stroke="#0F1146" stroke-width="3" stroke-miterlimit="10"/>
    <path d="M172.359 67.6465C172.359 70.6585 171.438 73.451 169.867 75.7648C167.468 79.2914 163.556 81.7024 159.064 82.0551C158.687 82.0875 158.302 82.1019 157.917 82.1019C157.777 82.1019 157.637 82.0983 157.496 82.0947C157.356 82.0911 157.216 82.0839 157.079 82.0767C157.054 82.0767 157.029 82.0731 157.004 82.0731C156.824 82.0623 156.644 82.0479 156.464 82.0299C156.227 82.0047 155.99 81.9759 155.752 81.9399C155.637 81.9219 155.519 81.9039 155.404 81.8824C155.27 81.8608 155.137 81.8356 155.004 81.8068C154.886 81.7852 154.771 81.76 154.652 81.7312C154.174 81.6197 153.703 81.4865 153.242 81.3282C153.142 81.2958 153.045 81.2598 152.947 81.2238C152.861 81.195 152.775 81.1626 152.689 81.1267C152.588 81.0871 152.484 81.0475 152.383 81.0043C152.275 80.9611 152.171 80.9143 152.066 80.8676C151.854 80.774 151.649 80.6768 151.441 80.5725C151.34 80.5221 151.236 80.4681 151.135 80.4141C151.049 80.3674 150.959 80.3206 150.873 80.2702C150.66 80.1515 150.452 80.0291 150.247 79.8996C150.164 79.8492 150.081 79.7952 149.999 79.7412C149.945 79.7052 149.891 79.6693 149.837 79.6333C149.74 79.5685 149.646 79.5037 149.553 79.4353C149.459 79.3706 149.366 79.3022 149.272 79.2302C149.197 79.1762 149.125 79.1223 149.053 79.0647C148.941 78.9783 148.834 78.892 148.726 78.802C148.647 78.7372 148.567 78.6725 148.492 78.6041C148.309 78.4457 148.125 78.2802 147.949 78.1111C147.866 78.0319 147.784 77.9527 147.701 77.87C147.618 77.7908 147.539 77.7045 147.46 77.6217C147.377 77.5389 147.298 77.4526 147.223 77.3662C147.143 77.2834 147.068 77.1971 146.992 77.1071C146.874 76.9703 146.759 76.83 146.644 76.6897C146.539 76.5601 146.439 76.4306 146.338 76.2974C146.331 76.2866 146.32 76.2722 146.313 76.2614C146.208 76.1247 146.111 75.9844 146.014 75.844C145.986 75.8044 145.96 75.7684 145.935 75.7289C145.852 75.6101 145.773 75.4878 145.698 75.3654C145.637 75.2682 145.576 75.1711 145.518 75.0739C145.457 74.9732 145.399 74.876 145.345 74.7752C145.119 74.3794 144.91 73.9692 144.723 73.5481C144.655 73.397 144.59 73.2423 144.526 73.0875C144.464 72.9328 144.403 72.7781 144.346 72.6197C144.342 72.6089 144.339 72.5981 144.335 72.5873C144.295 72.4758 144.256 72.3678 144.22 72.2563C144.144 72.0404 144.08 71.8244 144.015 71.6049C143.918 71.2631 143.832 70.914 143.763 70.5614C143.738 70.4462 143.713 70.3239 143.695 70.2051C143.677 70.1151 143.663 70.0216 143.648 69.9316C143.619 69.7589 143.594 69.5826 143.573 69.4062C143.562 69.3127 143.551 69.2191 143.544 69.1255C143.519 68.8988 143.501 68.6649 143.49 68.4346C143.483 68.3159 143.479 68.1935 143.476 68.0712C143.472 67.9308 143.468 67.7869 143.468 67.6465C143.468 59.6614 149.934 53.1912 157.917 53.1912C158.104 53.1912 158.288 53.1948 158.475 53.202C158.658 53.2092 158.845 53.22 159.028 53.2344C159.151 53.2416 159.273 53.2524 159.395 53.2668C159.881 53.3136 160.359 53.3891 160.826 53.4863C160.945 53.5079 161.06 53.5331 161.179 53.5619C161.258 53.5799 161.341 53.5979 161.42 53.6194C161.502 53.641 161.589 53.6626 161.671 53.6842C161.682 53.6878 161.689 53.6878 161.7 53.6914C161.83 53.7274 161.959 53.7634 162.085 53.803C162.16 53.8246 162.232 53.8462 162.304 53.8677C162.387 53.8965 162.466 53.9217 162.549 53.9505C162.66 53.9865 162.772 54.0261 162.883 54.0693C163.038 54.1232 163.189 54.1844 163.34 54.2456C163.358 54.2492 163.372 54.2564 163.39 54.2636C163.401 54.2672 163.415 54.2744 163.426 54.278C163.574 54.3392 163.718 54.4039 163.861 54.4687L163.98 54.5227C163.994 54.5299 164.009 54.5335 164.02 54.5443C164.135 54.5947 164.246 54.6486 164.358 54.7062C164.444 54.7458 164.527 54.789 164.609 54.8358C164.71 54.8861 164.811 54.9401 164.908 54.9941C165.009 55.0517 165.106 55.1056 165.203 55.1632C165.386 55.2712 165.566 55.3827 165.746 55.4979C165.926 55.613 166.102 55.7318 166.274 55.8577C166.325 55.8937 166.375 55.9297 166.422 55.9657C166.519 56.0341 166.616 56.106 166.709 56.1816C166.763 56.2212 166.817 56.2608 166.868 56.304C166.954 56.3687 167.037 56.4371 167.119 56.5091C167.206 56.5774 167.285 56.6458 167.368 56.7142C167.375 56.7214 167.378 56.7286 167.386 56.7322C167.555 56.8797 167.716 57.0273 167.878 57.182L167.882 57.1856C167.968 57.2684 168.054 57.3511 168.137 57.4339C168.299 57.5958 168.454 57.7578 168.605 57.9269C169.306 58.697 169.924 59.5426 170.442 60.4495C170.5 60.5466 170.554 60.6402 170.604 60.7374C170.719 60.9461 170.83 61.162 170.935 61.3779C171 61.5146 171.064 61.655 171.125 61.7953C171.183 61.9177 171.233 62.0436 171.284 62.1696C171.33 62.2811 171.377 62.3927 171.417 62.5042C171.467 62.6338 171.514 62.7633 171.56 62.8965C171.593 62.99 171.625 63.0836 171.654 63.1772C171.697 63.3067 171.737 63.4399 171.776 63.573C171.798 63.645 171.819 63.7169 171.837 63.7925C171.841 63.7997 171.845 63.8033 171.845 63.8105C171.866 63.8861 171.884 63.958 171.902 64.0336C171.963 64.2639 172.017 64.4978 172.064 64.7353C172.068 64.7569 172.075 64.7821 172.078 64.8037C172.1 64.8973 172.118 64.9944 172.132 65.088C172.15 65.1851 172.168 65.2823 172.183 65.3795C172.222 65.6386 172.258 65.9013 172.283 66.1675C172.301 66.3439 172.316 66.5238 172.326 66.7037C172.341 66.8729 172.348 67.042 172.352 67.2111C172.355 67.3551 172.359 67.5026 172.359 67.6465Z" stroke="black" stroke-width="3" stroke-miterlimit="10"/>
    <path d="M168.899 129.628V134.619C168.899 135.803 167.939 136.764 166.756 136.764H148.226C147.043 136.764 146.086 135.803 146.086 134.619V129.628H168.899Z" stroke="black" stroke-width="3" stroke-miterlimit="10"/>
    <path d="M298.545 305.262C297.173 305.072 295.768 305.033 294.346 305.151L291.085 299.424C290.646 298.277 289.379 297.709 288.247 298.149L287.2 298.556L283.832 299.871C282.7 300.314 282.138 301.593 282.577 302.739L283.815 309.145L283.291 309.624C281.501 310.967 281.632 311.192 280.408 313.029L279.955 313.089L273.386 311.957C272.233 311.571 270.991 312.203 270.605 313.364L269.112 317.898C268.73 319.063 269.353 320.317 270.503 320.703L276.191 323.807L276.358 323.918C276.202 325.733 276.358 326.612 276.74 328.187C276.81 328.459 276.881 328.756 276.962 329.077L276.747 329.327L271.706 333.732C270.68 334.386 270.365 335.751 271.012 336.787L273.527 340.835C273.669 341.063 273.846 341.256 274.044 341.41H276.87L282.396 339.145C282.906 339.638 283.436 340.099 283.992 340.527C284.972 341.288 286.022 341.953 287.126 342.51L287.275 348.887C287.119 350.102 287.968 351.213 289.171 351.37L293.862 351.981C295.068 352.139 296.168 351.285 296.324 350.066L298.047 344.514C298.984 344.411 299.929 344.239 300.877 343.989C302.009 343.689 303.095 343.3 304.117 342.821L304.181 342.764L308.755 346.394C309.586 347.287 310.977 347.333 311.861 346.497L315.314 343.228C315.724 342.842 315.954 342.335 316 341.817" stroke="black" stroke-width="3" stroke-miterlimit="10"/>
    <path d="M298.751 312.254C297.5 312.016 296.196 311.941 294.863 312.048C291.794 312.297 289.039 313.473 286.877 315.272C283.759 317.858 281.863 321.724 282.008 325.938C282.015 326.166 282.03 326.394 282.048 326.626C282.478 331.532 285.577 335.6 289.861 337.624C292.064 338.664 294.578 339.163 297.203 338.953C302.62 338.514 307.06 335.173 309 330.648" stroke="black" stroke-width="3" stroke-miterlimit="10"/>
    <path d="M277 341L276.666 341.276C275.817 342.357 274.751 342.196 274 341H277Z" stroke="black" stroke-width="3" stroke-miterlimit="10"/>
    <path d="M299 306.879V305.377C300.238 305.55 301.448 305.85 302.616 306.261L306.929 301.926C307.633 300.923 308.982 300.702 309.951 301.424L313.731 304.251C314.7 304.98 314.92 306.377 314.219 307.38L311.552 312.777C312.824 314.445 313.856 316.336 314.575 318.426L315 319" stroke="black" stroke-width="3" stroke-miterlimit="10"/>
    <path d="M299.004 311L299 311.912C304.824 313.035 309.431 317.813 309.953 323.887C309.986 324.261 310 324.634 310 325" stroke="black" stroke-width="3" stroke-miterlimit="10"/>
    <path d="M316 341C316 341.333 316 341.667 316 342" stroke="black" stroke-width="3" stroke-miterlimit="10"/>
    <path d="M307.883 328.931C307.657 329.594 308.031 330.306 308.71 330.527L308.943 330.648C307.007 335.173 302.577 338.514 297.171 338.953C294.552 339.163 292.043 338.664 289.845 337.624C285.57 335.6 282.477 331.532 282.048 326.626C282.03 326.394 282.015 326.166 282.008 325.938C281.864 321.724 283.755 317.858 286.866 315.272C289.024 313.473 291.773 312.297 294.836 312.048C296.166 311.941 297.467 312.016 298.716 312.254C304.69 313.391 309.416 318.225 309.952 324.371C309.985 324.748 310 325.126 310 325.497C309.461 325.5 308.958 325.835 308.773 326.359L307.883 328.931Z" stroke="black" stroke-width="3" stroke-miterlimit="10"/>
    <path d="M337.821 330.172C337.778 329.47 337.174 328.936 336.473 328.98L333.242 328.616V328.584C332.817 327.395 332.213 326.322 331.466 325.374L333.033 322.306C333.443 321.737 333.313 320.944 332.745 320.53L330.527 318.924C329.959 318.513 329.165 318.639 328.752 319.208L326.221 321.672C324.973 321.247 323.64 321.034 322.285 321.074C322.08 321.078 321.875 321.088 321.666 321.106L320.131 318.434L319.779 317.818C319.527 317.159 318.794 316.831 318.14 317.087L315.835 317.977H315.832L315.584 318.074C314.929 318.329 314.602 319.064 314.858 319.72L315.573 323.397L315.271 323.674C314.236 324.445 314.311 324.571 313.603 325.63L313.341 325.663L309.537 325.014C309.401 324.967 309.26 324.946 309.124 324.949C308.599 324.953 308.11 325.292 307.93 325.821L307.064 328.421C306.845 329.091 307.208 329.812 307.869 330.035L308.096 330.157L311.162 331.814L311.259 331.879C311.151 333.1 311.295 333.583 311.608 334.84L311.482 334.984L308.567 337.512C307.973 337.887 307.79 338.672 308.164 339.266L309.62 341.589C309.994 342.187 310.777 342.367 311.374 341.993L313.405 341.168L314.753 340.62C315.109 340.962 315.487 341.279 315.882 341.568C316.389 341.942 316.928 342.27 317.489 342.551L317.575 346.21C317.485 346.909 317.978 347.546 318.672 347.636L321.386 347.989C322.083 348.079 322.719 347.586 322.809 346.891L323.809 343.703C324.352 343.642 324.898 343.545 325.448 343.401C326.102 343.228 326.728 343.005 327.321 342.731L327.357 342.695L330.006 344.78C330.484 345.292 331.29 345.321 331.8 344.842L333.799 342.965C334.313 342.482 334.338 341.679 333.856 341.164L332.084 338.438L332.249 338.29L332.321 338.009C332.904 337.047 333.112 336.871 333.389 335.772L333.533 335.214L333.522 334.98L336.808 334.26C337.509 334.217 338.041 333.611 337.998 332.909L337.821 330.172ZM323.126 339.079C319.606 339.374 316.515 336.752 316.22 333.226C315.925 329.7 318.539 326.603 322.062 326.307C325.577 326.012 328.669 328.63 328.964 332.156C329.258 335.682 326.645 338.783 323.126 339.079Z" fill="#0F1146" stroke="black" stroke-width="3" stroke-miterlimit="10"/>
    <path d="M323.501 338.977C320.199 339.277 317.298 336.617 317.021 333.041C316.745 329.464 319.197 326.323 322.502 326.023C325.801 325.723 328.702 328.379 328.979 331.956C329.255 335.532 326.803 338.677 323.501 338.977Z" stroke="black" stroke-width="3" stroke-miterlimit="10"/>
    <path d="M323.501 338.977C320.199 339.277 317.298 336.617 317.021 333.041C316.745 329.464 319.197 326.323 322.502 326.023C325.801 325.723 328.702 328.379 328.979 331.956C329.255 335.532 326.803 338.677 323.501 338.977Z" stroke="black" stroke-width="3" stroke-miterlimit="10"/>
    <path d="M197.063 141.694H189.307C184.452 141.694 180.515 137.753 180.515 132.895V125.133C180.515 120.275 184.452 116.335 189.307 116.335H197.063C201.918 116.335 205.856 120.275 205.856 125.133V132.895C205.856 137.753 201.922 141.694 197.063 141.694Z" fill="#BC0000" stroke="black" stroke-width="3" stroke-miterlimit="10"/>
    <path d="M231.585 141.694H223.829C218.974 141.694 215.036 137.753 215.036 132.895V125.133C215.036 120.275 218.974 116.335 223.829 116.335H231.585C236.44 116.335 240.378 120.275 240.378 125.133V132.895C240.378 137.753 236.444 141.694 231.585 141.694Z" fill="#BC0000" stroke="black" stroke-width="3" stroke-miterlimit="10"/>
    <path d="M265.028 141.694H257.272C252.417 141.694 248.479 137.753 248.479 132.895V125.133C248.479 120.275 252.417 116.335 257.272 116.335H265.028C269.883 116.335 273.821 120.275 273.821 125.133V132.895C273.821 137.753 269.887 141.694 265.028 141.694Z" fill="#BC0000" stroke="black" stroke-width="3" stroke-miterlimit="10"/>
    <path d="M197.063 175.52H189.307C184.452 175.52 180.515 171.579 180.515 166.721V158.959C180.515 154.101 184.452 150.161 189.307 150.161H197.063C201.918 150.161 205.856 154.101 205.856 158.959V166.721C205.856 171.579 201.922 175.52 197.063 175.52Z" fill="#BC0000" stroke="black" stroke-width="3" stroke-miterlimit="10"/>
    <path d="M231.585 175.52H223.829C218.974 175.52 215.036 171.579 215.036 166.721V158.959C215.036 154.101 218.974 150.161 223.829 150.161H231.585C236.44 150.161 240.378 154.101 240.378 158.959V166.721C240.378 171.579 236.444 175.52 231.585 175.52Z" fill="#BC0000" stroke="black" stroke-width="3" stroke-miterlimit="10"/>
    <path d="M265.028 175.52H257.272C252.417 175.52 248.479 171.579 248.479 166.721V158.959C248.479 154.101 252.417 150.161 257.272 150.161H265.028C269.883 150.161 273.821 154.101 273.821 158.959V166.721C273.821 171.579 269.887 175.52 265.028 175.52Z" fill="#BC0000" stroke="black" stroke-width="3" stroke-miterlimit="10"/>
    <path d="M205.856 191.346V199.108C205.856 201.055 205.223 202.851 204.155 204.308C202.555 206.489 199.973 207.907 197.063 207.907H189.307C186.394 207.907 183.812 206.489 182.212 204.308C181.144 202.851 180.515 201.055 180.515 199.108V191.346C180.515 186.485 184.449 182.548 189.307 182.548H197.063C201.918 182.548 205.856 186.485 205.856 191.346Z" fill="#BC0000" stroke="black" stroke-width="3" stroke-miterlimit="10"/>
    <path d="M240.378 191.346V199.108C240.378 201.055 239.745 202.851 238.677 204.308C237.076 206.489 234.494 207.907 231.585 207.907H223.829C220.916 207.907 218.334 206.489 216.734 204.308C215.666 202.851 215.036 201.055 215.036 199.108V191.346C215.036 186.485 218.97 182.548 223.829 182.548H231.585C236.44 182.548 240.378 186.485 240.378 191.346Z" fill="#BC0000" stroke="black" stroke-width="3" stroke-miterlimit="10"/>
    <path d="M273.821 191.346V199.108C273.821 201.055 273.188 202.851 272.12 204.308C270.52 206.489 267.938 207.907 265.028 207.907H257.272C254.359 207.907 251.777 206.489 250.177 204.308C249.109 202.851 248.479 201.055 248.479 199.108V191.346C248.479 186.485 252.414 182.548 257.272 182.548H265.028C269.883 182.548 273.821 186.485 273.821 191.346Z" fill="#BC0000" stroke="black" stroke-width="3" stroke-miterlimit="10"/>
    <path d="M205.856 224.453V232.215C205.856 234.162 205.223 235.957 204.155 237.415C202.555 239.595 199.973 241.013 197.063 241.013H189.307C186.394 241.013 183.812 239.595 182.212 237.415C181.144 235.957 180.515 234.162 180.515 232.215V224.453C180.515 219.591 184.449 215.654 189.307 215.654H197.063C201.918 215.654 205.856 219.591 205.856 224.453Z" fill="#BC0000" stroke="black" stroke-width="3" stroke-miterlimit="10"/>
    <path d="M240.378 224.453V232.215C240.378 234.162 239.745 235.957 238.677 237.415C237.076 239.595 234.494 241.013 231.585 241.013H223.829C220.916 241.013 218.334 239.595 216.734 237.415C215.666 235.957 215.036 234.162 215.036 232.215V224.453C215.036 219.591 218.97 215.654 223.829 215.654H231.585C236.44 215.654 240.378 219.591 240.378 224.453Z" fill="#BC0000" stroke="black" stroke-width="3" stroke-miterlimit="10"/>
    <path d="M273.821 224.453V232.215C273.821 234.162 273.188 235.957 272.12 237.415C270.52 239.595 267.938 241.013 265.028 241.013H257.272C254.359 241.013 251.777 239.595 250.177 237.415C249.109 235.957 248.479 234.162 248.479 232.215V224.453C248.479 219.591 252.414 215.654 257.272 215.654H265.028C269.883 215.654 273.821 219.591 273.821 224.453Z" fill="#BC0000" stroke="black" stroke-width="3" stroke-miterlimit="10"/>
    <path d="M219 276H128V351H219V276Z" stroke="black" stroke-width="3" stroke-miterlimit="10"/>
    <path d="M219 276H128V287H219V276Z" fill="#BC0000" stroke="black" stroke-width="3" stroke-miterlimit="10"/>
    <path d="M134.5 283C135.328 283 136 282.328 136 281.5C136 280.672 135.328 280 134.5 280C133.672 280 133 280.672 133 281.5C133 282.328 133.672 283 134.5 283Z" fill="black"/>
    <path d="M140.5 283C141.328 283 142 282.328 142 281.5C142 280.672 141.328 280 140.5 280C139.672 280 139 280.672 139 281.5C139 282.328 139.672 283 140.5 283Z" fill="black"/>
    <path d="M146 283C147.105 283 148 282.328 148 281.5C148 280.672 147.105 280 146 280C144.895 280 144 280.672 144 281.5C144 282.328 144.895 283 146 283Z" fill="black"/>
    <path d="M135.5 297C136.328 297 137 296.328 137 295.5C137 294.672 136.328 294 135.5 294C134.672 294 134 294.672 134 295.5C134 296.328 134.672 297 135.5 297Z" fill="black"/>
    <path d="M135.5 303C136.328 303 137 302.105 137 301C137 299.895 136.328 299 135.5 299C134.672 299 134 299.895 134 301C134 302.105 134.672 303 135.5 303Z" fill="black"/>
    <path d="M135.5 308C136.328 308 137 307.328 137 306.5C137 305.672 136.328 305 135.5 305C134.672 305 134 305.672 134 306.5C134 307.328 134.672 308 135.5 308Z" fill="black"/>
    <path d="M135.5 314C136.328 314 137 313.328 137 312.5C137 311.672 136.328 311 135.5 311C134.672 311 134 311.672 134 312.5C134 313.328 134.672 314 135.5 314Z" fill="black"/>
    <path d="M135.5 320C136.328 320 137 319.328 137 318.5C137 317.672 136.328 317 135.5 317C134.672 317 134 317.672 134 318.5C134 319.328 134.672 320 135.5 320Z" fill="black"/>
    <path d="M135.5 325C136.328 325 137 324.328 137 323.5C137 322.672 136.328 322 135.5 322C134.672 322 134 322.672 134 323.5C134 324.328 134.672 325 135.5 325Z" fill="black"/>
    <path d="M135.5 331C136.328 331 137 330.328 137 329.5C137 328.672 136.328 328 135.5 328C134.672 328 134 328.672 134 329.5C134 330.328 134.672 331 135.5 331Z" fill="black"/>
    <path d="M135.5 337C136.328 337 137 336.105 137 335C137 333.895 136.328 333 135.5 333C134.672 333 134 333.895 134 335C134 336.105 134.672 337 135.5 337Z" fill="black"/>
    <path d="M151 300H139V302H151V300Z" fill="black"/>
    <path d="M151 294H139V296H151V294Z" fill="black"/>
    <path d="M166 300H154V302H166V300Z" fill="black"/>
    <path d="M162 305H139V308H162V305Z" fill="black"/>
    <path d="M162 311H139V313H162V311Z" fill="black"/>
    <path d="M162 317H139V319H162V317Z" fill="black"/>
    <path d="M162 322H139V325H162V322Z" fill="black"/>
    <path d="M187 322H164V325H187V322Z" fill="black"/>
    <path d="M172 317H164V319H172V317Z" fill="black"/>
    <path d="M147 328H139V330H147V328Z" fill="black"/>
    <path d="M324.13 133.72C311.806 133.564 311.652 145.387 311.652 145.387V149.854C309.165 146.1 307.591 141.55 307.115 136.417C305.727 121.437 317.07 108.112 332.449 106.657C333.684 106.541 334.911 106.501 336.117 106.541C338.454 102.396 341.589 98.7728 345.328 95.913C350.187 92.1953 356.063 89.7663 362.532 89.1509C381.218 87.3771 397.843 101.444 399.926 120.663C400.334 120.601 400.749 120.55 401.168 120.511C412.718 119.414 422.902 127.403 423.918 138.35C424.931 149.3 416.393 159.063 404.842 160.157C402.237 160.403 394.183 160.414 392.172 160.508L386.711 160.566L349.049 160.967C346.906 160.964 345.081 160.978 343.349 161V160.142C343.349 157.586 341.302 155.516 338.776 155.516H337.08V145.514" stroke="black" stroke-width="3" stroke-miterlimit="10"/>
    <path d="M338.461 155.952H336.777V145.995C334.788 133.385 324.204 134.005 324.204 134.005C311.972 133.85 311.539 145.869 311.539 145.869V155.952H309.539C307.032 155.952 305 158.013 305 160.557V181.394C305 183.939 307.032 186 309.539 186H338.461C340.968 186 343 183.939 343 181.394V160.557C343 158.013 340.968 155.952 338.461 155.952ZM325.959 172.313L326.943 178.504L321.363 178.587L322.098 172.302C322.137 171.956 321.988 171.625 321.725 171.398C320.908 170.695 320.425 169.606 320.55 168.406C320.709 166.828 321.967 165.538 323.522 165.358C325.572 165.123 327.308 166.742 327.308 168.774C327.308 169.599 326.918 170.342 326.392 170.929C326.051 171.304 325.881 171.808 325.959 172.313ZM331.684 155.703L316.692 155.826L316.753 146.532C316.753 146.532 315.879 140.301 322.855 139.209C323.27 139.144 323.689 139.126 324.108 139.155C325.93 139.284 330.406 139.382 331.563 145.364L331.684 155.703Z" fill="#BC0000" stroke="black" stroke-width="3" stroke-miterlimit="10"/>
    <path d="M106 141C109.314 141 112 138.314 112 135C112 131.686 109.314 129 106 129C102.686 129 100 131.686 100 135C100 138.314 102.686 141 106 141Z" fill="#BC0000" stroke="black" stroke-width="3" stroke-miterlimit="10"/>
    <path d="M112 136H147" stroke="black" stroke-width="3" stroke-miterlimit="10"/>
    <path d="M98 167C101.314 167 104 164.314 104 161C104 157.686 101.314 155 98 155C94.6863 155 92 157.686 92 161C92 164.314 94.6863 167 98 167Z" stroke="black" stroke-width="3" stroke-miterlimit="10"/>
    <path d="M98 167V177.296H127V204" stroke="black" stroke-width="3" stroke-miterlimit="10"/>
    <path d="M138 165C141.314 165 144 162.314 144 159C144 155.686 141.314 153 138 153C134.686 153 132 155.686 132 159C132 162.314 134.686 165 138 165Z" stroke="black" stroke-width="3" stroke-miterlimit="10"/>
    <path d="M138 165V191H153" stroke="black" stroke-width="3" stroke-miterlimit="10"/>
    <path d="M115 112C118.314 112 121 109.314 121 106C121 102.686 118.314 100 115 100C111.686 100 109 102.686 109 106C109 109.314 111.686 112 115 112Z" stroke="black" stroke-width="3" stroke-miterlimit="10"/>
    <path d="M115 119H140" stroke="black" stroke-width="3" stroke-miterlimit="10"/>
    <path d="M114 113V121" stroke="black" stroke-width="3" stroke-miterlimit="10"/>
    <path d="M331 276C334.314 276 337 273.314 337 270C337 266.686 334.314 264 331 264C327.686 264 325 266.686 325 270C325 273.314 327.686 276 331 276Z" fill="#BC0000" stroke="black" stroke-width="3" stroke-miterlimit="10"/>
    <path d="M347 301C350.314 301 353 298.314 353 295C353 291.686 350.314 289 347 289C343.686 289 341 291.686 341 295C341 298.314 343.686 301 347 301Z" stroke="black" stroke-width="3" stroke-miterlimit="10"/>
    <path d="M299 270H325" stroke="black" stroke-width="3" stroke-miterlimit="10"/>
    <path d="M299 284H324.967V294.693L341 295" stroke="black" stroke-width="3" stroke-miterlimit="10"/>
    <path d="M314 260C317.314 260 320 257.314 320 254C320 250.686 317.314 248 314 248C310.686 248 308 250.686 308 254C308 257.314 310.686 260 314 260Z" stroke="black" stroke-width="3" stroke-miterlimit="10"/>
    <path d="M299 254H308" stroke="black" stroke-width="3" stroke-miterlimit="10"/>
</svg>
