<svg width="106" height="111" viewBox="0 0 106 111" fill="none" xmlns="http://www.w3.org/2000/svg">
    <g clip-path="url(#clip0_15_155)">
        <path d="M102.37 110.353H3.63022C1.97972 110.353 0.641357 109.002 0.641357 107.337C0.641357 103.47 3.74567 100.338 7.5769 100.338H98.4273C102.259 100.338 105.363 103.47 105.363 107.337C105.359 109.002 104.02 110.353 102.37 110.353Z" stroke="#BC1818" stroke-width="3" stroke-miterlimit="10"/>
        <path d="M20.037 99.7119L17.1464 59.4181C17.0267 57.7438 18.3522 56.3156 20.0327 56.3156H86.8909C88.597 56.3156 89.9354 57.787 89.7729 59.4871L85.9246 99.7162H20.037V99.7119Z" stroke="#BC1818" stroke-width="3" stroke-miterlimit="10"/>
        <path d="M47.715 82.7883C47.715 82.9652 47.7064 83.1119 47.6936 83.2198C47.6808 83.332 47.6551 83.4097 47.6209 83.4528C47.5867 83.5003 47.5397 83.5176 47.4883 83.5132C47.437 83.5046 47.3686 83.483 47.2917 83.4399L38.9536 79.1896C38.8809 79.1551 38.8253 79.0688 38.7826 78.935C38.7398 78.8012 38.7184 78.6027 38.7184 78.3481C38.7184 78.236 38.7227 78.1281 38.7355 78.0288C38.7484 77.9296 38.7655 77.8476 38.7869 77.7829C38.8125 77.7181 38.8382 77.6621 38.8724 77.6189C38.9066 77.5758 38.9408 77.5412 38.9835 77.5283L47.2917 73.2996C47.4541 73.2219 47.5653 73.2262 47.6252 73.3082C47.685 73.3945 47.715 73.6059 47.715 73.9382C47.715 74.1453 47.7107 74.3093 47.6979 74.4301C47.6893 74.5509 47.6679 74.6502 47.6466 74.7235C47.6209 74.7969 47.5867 74.8573 47.5397 74.8961C47.4926 74.935 47.4285 74.9781 47.343 75.0213L40.5272 78.387L47.3002 81.6966C47.39 81.7484 47.4627 81.7915 47.5183 81.8304C47.5696 81.8692 47.6124 81.9253 47.638 82.003C47.6679 82.0763 47.685 82.1756 47.6979 82.3007C47.7107 82.4172 47.715 82.5855 47.715 82.7883Z" fill="#BC1818"/>
        <path d="M50.5627 87.0947C50.5328 87.1853 50.4986 87.2587 50.4516 87.3148C50.4045 87.3709 50.3489 87.4097 50.2763 87.4399C50.2036 87.4701 50.118 87.4917 50.0154 87.5046C49.9128 87.5176 49.7888 87.5262 49.6391 87.5262C49.4638 87.5262 49.3184 87.5133 49.1987 87.4874C49.0833 87.4615 48.9935 87.427 48.9293 87.3795C48.8652 87.332 48.8267 87.276 48.8139 87.2069C48.8011 87.1379 48.8139 87.0602 48.8566 86.9653L55.2577 69.2477C55.2876 69.1571 55.3218 69.0838 55.3689 69.0277C55.4159 68.9759 55.4715 68.9327 55.5399 68.8982C55.6083 68.868 55.6938 68.8464 55.8007 68.8335C55.9076 68.8249 56.0316 68.8162 56.1813 68.8162C56.3566 68.8162 56.502 68.8292 56.6132 68.8551C56.7243 68.881 56.8141 68.9155 56.8783 68.9586C56.9424 69.0018 56.9809 69.0579 56.9937 69.1312C57.0065 69.2046 56.998 69.2866 56.9638 69.3772L50.5627 87.0947Z" fill="#BC1818"/>
        <path d="M67.2302 78.3913C67.2302 78.5121 67.2217 78.62 67.2089 78.7149C67.196 78.8099 67.1789 78.8962 67.1576 78.9652C67.1362 79.0386 67.1062 79.0904 67.072 79.1292C67.0378 79.168 66.9993 79.1982 66.9566 79.2198L58.6485 83.4485C58.5715 83.4831 58.5031 83.5046 58.4475 83.509C58.3919 83.5133 58.3492 83.4874 58.315 83.4399C58.2807 83.3924 58.2594 83.3148 58.2465 83.2112C58.2337 83.1077 58.2252 82.9739 58.2252 82.8099C58.2252 82.6114 58.2294 82.4518 58.238 82.3309C58.2465 82.2101 58.2594 82.1109 58.285 82.0375C58.3107 81.9642 58.3449 81.9038 58.3962 81.8606C58.4475 81.8175 58.5074 81.7786 58.5886 81.7441L65.413 78.3568L58.6271 75.0558C58.5373 75.0126 58.4646 74.9738 58.409 74.935C58.3534 74.8961 58.315 74.8357 58.285 74.7581C58.2551 74.6804 58.238 74.5768 58.2337 74.4517C58.2252 74.3266 58.2209 74.1626 58.2209 73.9555C58.2209 73.7699 58.2294 73.6275 58.2423 73.524C58.2551 73.4204 58.2807 73.347 58.3107 73.2996C58.3406 73.2521 58.3876 73.2348 58.4432 73.2392C58.4988 73.2478 58.5672 73.2694 58.6442 73.3125L66.9822 77.5542C67.0549 77.5887 67.1105 77.6793 67.1576 77.8174C67.2089 77.9555 67.2302 78.1497 67.2302 78.3913Z" fill="#BC1818"/>
        <path d="M60.3417 45.0835C76.9451 48.7685 82.5722 56.2465 82.5722 56.2465L54.5692 55.582L54.5735 55.6079L25.1723 56.3069C25.1723 56.3069 29.9827 48.4363 46.5861 44.7512" stroke="#BC1818" stroke-width="3" stroke-miterlimit="10"/>
        <path d="M58.0157 41.0144C58.2124 42.0543 59.9612 44.5355 60.8891 45.3035C60.8891 45.3035 52.0251 53.6143 46.2612 44.5312C46.2612 44.5312 49.2415 43.2884 49.6776 41.6746" stroke="#BC1818" stroke-width="3" stroke-miterlimit="10"/>
        <path d="M67.0635 18.6798C67.7476 20.8417 67.3115 21.6443 67.3115 24.1383C67.3115 34.1147 61.2739 42.2011 53.821 42.2011C46.368 42.2011 40.3347 34.1147 40.3347 24.1383C40.3347 21.8988 40.6383 19.7499 41.1985 17.7693" stroke="#BC1818" stroke-width="3" stroke-miterlimit="10"/>
        <path d="M40.2278 28.4836C32.0993 21.3292 40.0568 18.5374 40.0568 18.5374L40.2278 28.4836Z" stroke="#BC1818" stroke-width="3" stroke-miterlimit="10"/>
        <path d="M67.102 29.3854C75.564 22.6367 67.7519 19.4565 67.7519 19.4565L67.102 29.3854Z" stroke="#BC1818" stroke-width="3" stroke-miterlimit="10"/>
        <path d="M38.4833 18.9732C38.4833 18.9732 45.4402 15.4823 45.4402 11.9915C45.4402 11.9915 52.9059 14.6107 63.1339 11.4694C63.1339 11.4694 65.0795 19.4996 70.1935 19.6722C70.1935 19.6722 74.4908 3.44339 54.0305 0.647245C54.0305 0.647245 35.0027 0.297727 38.4833 18.9732Z" stroke="#BC1818" stroke-width="3" stroke-miterlimit="10"/>
    </g>
    <defs>
        <clipPath id="clip0_15_155">
            <rect width="106" height="111" fill="white"/>
        </clipPath>
    </defs>
</svg>
